<svg version="1.1" id="Layer_1" xmlns="http://www.w3.org/2000/svg" xmlns:xlink="http://www.w3.org/1999/xlink" x="0px" y="0px"
	 width="100%" viewBox="0 0 640 640" enable-background="new 0 0 640 640" xml:space="preserve">
<path fill="#000000" opacity="1.000000" stroke="none" 
	d="
M257.529083,189.532410 
	C270.224915,175.401398 283.741638,162.870743 301.575714,156.193176 
	C312.167023,152.227493 313.026794,153.070053 311.006989,164.088577 
	C309.574188,171.905075 308.054352,179.705612 306.561249,187.577087 
	C309.733978,189.237152 312.788574,189.173538 315.652740,189.541031 
	C333.345245,191.811188 344.425079,202.188644 347.252838,219.820099 
	C348.251007,226.043762 348.879822,232.364182 349.102722,238.660767 
	C349.239502,242.524948 350.521790,245.275040 353.457855,247.645126 
	C356.429657,250.044037 359.393555,252.537796 361.922516,255.380081 
	C365.638458,259.556335 365.356750,264.333252 361.437378,268.334869 
	C356.802948,273.066467 350.995819,276.070435 344.967346,278.500854 
	C336.944885,281.735138 328.743378,284.522797 320.655151,287.597961 
	C317.547333,288.779572 314.472900,290.092407 311.507385,291.591187 
	C309.174988,292.769958 306.176178,294.012817 306.816071,297.271332 
	C307.417999,300.336212 310.587158,300.917419 313.149841,301.364471 
	C321.714813,302.858612 330.407471,302.395691 339.048157,302.793365 
	C353.530396,303.459808 367.978271,304.902771 381.454376,310.819763 
	C410.965393,323.777191 427.432617,346.480835 431.405823,378.388397 
	C433.157074,392.452454 429.881073,405.519562 423.398071,417.851471 
	C421.752502,420.981689 421.788544,422.829285 424.336029,425.550293 
	C446.082642,448.778229 433.537567,483.656891 408.411407,493.959076 
	C405.753204,495.048950 402.976196,495.416046 400.105225,495.400787 
	C392.773682,495.361816 385.439575,495.515137 378.110779,495.371613 
	C374.574310,495.302368 372.810333,496.546814 372.851562,500.229218 
	C372.927521,507.016205 372.873260,513.804688 372.873260,520.089172 
	C369.620697,521.545593 368.235382,519.936829 366.759766,519.057190 
	C360.894836,515.560791 355.051544,512.020447 349.320953,508.309906 
	C346.704346,506.615662 344.640991,506.903320 342.007904,508.454132 
	C334.878601,512.653259 328.261505,517.758179 320.218475,521.388794 
	C318.203125,516.908264 319.156281,512.552979 319.086945,508.375702 
	C318.857086,494.528351 320.717407,495.412476 306.211517,495.405518 
	C289.881500,495.397705 273.551392,495.427094 257.221497,495.377045 
	C249.523163,495.353455 244.362198,491.028015 243.705536,484.238953 
	C242.923798,476.156921 246.939362,470.716339 254.947525,469.205536 
	C256.728760,468.869507 258.591309,468.878784 260.416687,468.875580 
	C277.913055,468.844727 295.409576,468.861908 312.905945,468.819977 
	C315.646820,468.813385 318.832489,469.492432 319.041748,465.040710 
	C319.214966,461.356873 317.774475,459.693573 314.035217,459.113129 
	C306.563354,457.953247 299.163757,456.327545 291.613464,454.870880 
	C292.476654,452.764557 293.981232,453.133392 295.216370,453.127594 
	C318.695465,453.016907 342.174683,452.908722 365.653961,452.883423 
	C372.682953,452.875854 372.833191,453.145874 372.887970,460.287933 
	C372.953583,468.843994 372.953583,468.847961 381.492279,468.831268 
	C383.824921,468.826691 386.162903,468.885315 388.489105,468.752014 
	C396.472046,468.294556 402.777954,461.784668 402.699768,454.165802 
	C402.615082,445.911530 396.593475,439.510864 388.300842,439.330597 
	C378.973969,439.127808 369.639343,439.279816 360.308105,439.275513 
	C311.318207,439.253082 262.328308,439.233765 213.338425,439.190582 
	C211.706360,439.189148 210.006516,439.596069 207.014450,437.930695 
	C218.838806,433.061279 229.767624,428.560669 240.283325,424.230164 
	C240.541245,421.610779 239.328247,420.586456 238.318115,419.526306 
	C221.767380,402.156067 212.288086,381.130737 208.973724,357.775208 
	C200.167099,295.717010 216.913589,240.515732 255.602371,191.630173 
	C256.116882,190.980087 256.728027,190.406525 257.529083,189.532410 
z"/>
<path fill="#000000" opacity="1.000000" stroke="none" 
	d="
M291.351746,154.410675 
	C291.611694,156.846725 291.589722,158.653610 289.470490,159.997101 
	C276.024139,168.521332 264.204834,178.931946 253.859879,191.028976 
	C253.455933,191.501343 252.828262,191.782394 252.208038,192.221054 
	C251.797195,180.673859 278.226501,148.757706 289.689789,146.861145 
	C290.722534,149.122574 291.239410,151.521713 291.351746,154.410675 
z"/>
</svg>