<svg width="462" height="30" viewBox="0 0 462 30" fill="none" xmlns="http://www.w3.org/2000/svg">
<path d="M0.32 29V0.999998H6.8V23.72H20.84V29H0.32ZM20.9369 29L33.4169 0.999998H39.8169L52.3369 29H45.5369L35.2969 4.28H37.8569L27.5769 29H20.9369ZM27.1769 23L28.8969 18.08H43.2969L45.0569 23H27.1769ZM60.4831 29V17.56L61.9631 21.48L49.6431 0.999998H56.5231L65.9631 16.72H62.0031L71.4831 0.999998H77.8431L65.5231 21.48L66.9631 17.56V29H60.4831ZM80.32 29V0.999998H94C97.52 0.999998 100.16 1.66666 101.92 3C103.707 4.33333 104.6 6.09333 104.6 8.28C104.6 9.74667 104.24 11.0267 103.52 12.12C102.8 13.1867 101.813 14.0133 100.56 14.6C99.3067 15.1867 97.8667 15.48 96.24 15.48L97 13.84C98.76 13.84 100.32 14.1333 101.68 14.72C103.04 15.28 104.093 16.12 104.84 17.24C105.613 18.36 106 19.7333 106 21.36C106 23.76 105.053 25.64 103.16 27C101.267 28.3333 98.48 29 94.8 29H80.32ZM86.76 24.12H94.32C96 24.12 97.2667 23.8533 98.12 23.32C99 22.76 99.44 21.88 99.44 20.68C99.44 19.5067 99 18.64 98.12 18.08C97.2667 17.4933 96 17.2 94.32 17.2H86.28V12.48H93.2C94.7733 12.48 95.9733 12.2133 96.8 11.68C97.6533 11.12 98.08 10.28 98.08 9.16C98.08 8.06667 97.6533 7.25333 96.8 6.72C95.9733 6.16 94.7733 5.88 93.2 5.88H86.76V24.12ZM110.906 29V0.999998H123.026C125.533 0.999998 127.693 1.41333 129.506 2.24C131.319 3.04 132.719 4.2 133.706 5.72C134.693 7.24 135.186 9.05333 135.186 11.16C135.186 13.24 134.693 15.04 133.706 16.56C132.719 18.0533 131.319 19.2 129.506 20C127.693 20.8 125.533 21.2 123.026 21.2H114.506L117.386 18.36V29H110.906ZM128.706 29L121.706 18.84H128.626L135.706 29H128.706ZM117.386 19.08L114.506 16.04H122.666C124.666 16.04 126.159 15.6133 127.146 14.76C128.133 13.88 128.626 12.68 128.626 11.16C128.626 9.61333 128.133 8.41333 127.146 7.56C126.159 6.70667 124.666 6.28 122.666 6.28H114.506L117.386 3.2V19.08ZM136.64 29L149.12 0.999998H155.52L168.04 29H161.24L151 4.28H153.56L143.28 29H136.64ZM142.88 23L144.6 18.08H159L160.76 23H142.88ZM170.945 29V0.999998H183.065C185.572 0.999998 187.732 1.41333 189.545 2.24C191.358 3.04 192.758 4.2 193.745 5.72C194.732 7.24 195.225 9.05333 195.225 11.16C195.225 13.24 194.732 15.04 193.745 16.56C192.758 18.0533 191.358 19.2 189.545 20C187.732 20.8 185.572 21.2 183.065 21.2H174.545L177.425 18.36V29H170.945ZM188.745 29L181.745 18.84H188.665L195.745 29H188.745ZM177.425 19.08L174.545 16.04H182.705C184.705 16.04 186.198 15.6133 187.185 14.76C188.172 13.88 188.665 12.68 188.665 11.16C188.665 9.61333 188.172 8.41333 187.185 7.56C186.198 6.70667 184.705 6.28 182.705 6.28H174.545L177.425 3.2V19.08ZM206.928 29V17.56L208.408 21.48L196.088 0.999998H202.968L212.408 16.72H208.448L217.928 0.999998H224.288L211.968 21.48L213.408 17.56V29H206.928ZM221.601 29L234.081 0.999998H240.481L253.001 29H246.201L235.961 4.28H238.521L228.241 29H221.601ZM227.841 23L229.561 18.08H243.961L245.721 23H227.841ZM255.906 29V0.999998H261.266L277.786 21.16H275.186V0.999998H281.586V29H276.266L259.706 8.84H262.306V29H255.906ZM301.731 29.48C299.517 29.48 297.477 29.1333 295.611 28.44C293.771 27.72 292.157 26.7067 290.771 25.4C289.411 24.0933 288.344 22.56 287.571 20.8C286.824 19.04 286.451 17.1067 286.451 15C286.451 12.8933 286.824 10.96 287.571 9.2C288.344 7.44 289.424 5.90667 290.811 4.6C292.197 3.29333 293.824 2.29333 295.691 1.6C297.557 0.879999 299.611 0.52 301.851 0.52C304.331 0.52 306.557 0.933332 308.531 1.76C310.531 2.58666 312.211 3.78667 313.571 5.36L309.411 9.2C308.397 8.13333 307.291 7.34667 306.091 6.84C304.891 6.30667 303.584 6.04 302.171 6.04C300.811 6.04 299.571 6.25333 298.451 6.68C297.331 7.10666 296.357 7.72 295.531 8.52C294.731 9.32 294.104 10.2667 293.651 11.36C293.224 12.4533 293.011 13.6667 293.011 15C293.011 16.3067 293.224 17.5067 293.651 18.6C294.104 19.6933 294.731 20.6533 295.531 21.48C296.357 22.28 297.317 22.8933 298.411 23.32C299.531 23.7467 300.757 23.96 302.091 23.96C303.371 23.96 304.611 23.76 305.811 23.36C307.037 22.9333 308.224 22.2267 309.371 21.24L313.051 25.92C311.531 27.0667 309.757 27.9467 307.731 28.56C305.731 29.1733 303.731 29.48 301.731 29.48ZM307.131 25.08V14.56H313.051V25.92L307.131 25.08ZM330.398 29V0.999998H342.518C345.025 0.999998 347.185 1.41333 348.998 2.24C350.811 3.04 352.211 4.2 353.198 5.72C354.185 7.24 354.678 9.05333 354.678 11.16C354.678 13.24 354.185 15.04 353.198 16.56C352.211 18.08 350.811 19.2533 348.998 20.08C347.185 20.88 345.025 21.28 342.518 21.28H333.998L336.878 18.36V29H330.398ZM336.878 19.08L333.998 16H342.158C344.158 16 345.651 15.5733 346.638 14.72C347.625 13.8667 348.118 12.68 348.118 11.16C348.118 9.61333 347.625 8.41333 346.638 7.56C345.651 6.70667 344.158 6.28 342.158 6.28H333.998L336.878 3.2V19.08ZM359.304 29V0.999998H365.784V29H359.304ZM372.429 29V0.999998H377.789L394.309 21.16H391.709V0.999998H398.109V29H392.789L376.229 8.84H378.829V29H372.429ZM418.334 29.48C416.121 29.48 414.067 29.12 412.174 28.4C410.307 27.68 408.681 26.6667 407.294 25.36C405.934 24.0533 404.867 22.52 404.094 20.76C403.347 19 402.974 17.08 402.974 15C402.974 12.92 403.347 11 404.094 9.24C404.867 7.48 405.947 5.94667 407.334 4.64C408.721 3.33333 410.347 2.32 412.214 1.6C414.081 0.879999 416.107 0.52 418.294 0.52C420.507 0.52 422.534 0.879999 424.374 1.6C426.241 2.32 427.854 3.33333 429.214 4.64C430.601 5.94667 431.681 7.48 432.454 9.24C433.227 10.9733 433.614 12.8933 433.614 15C433.614 17.08 433.227 19.0133 432.454 20.8C431.681 22.56 430.601 24.0933 429.214 25.4C427.854 26.68 426.241 27.68 424.374 28.4C422.534 29.12 420.521 29.48 418.334 29.48ZM418.294 23.96C419.547 23.96 420.694 23.7467 421.734 23.32C422.801 22.8933 423.734 22.28 424.534 21.48C425.334 20.68 425.947 19.7333 426.374 18.64C426.827 17.5467 427.054 16.3333 427.054 15C427.054 13.6667 426.827 12.4533 426.374 11.36C425.947 10.2667 425.334 9.32 424.534 8.52C423.761 7.72 422.841 7.10666 421.774 6.68C420.707 6.25333 419.547 6.04 418.294 6.04C417.041 6.04 415.881 6.25333 414.814 6.68C413.774 7.10666 412.854 7.72 412.054 8.52C411.254 9.32 410.627 10.2667 410.174 11.36C409.747 12.4533 409.534 13.6667 409.534 15C409.534 16.3067 409.747 17.52 410.174 18.64C410.627 19.7333 411.241 20.68 412.014 21.48C412.814 22.28 413.747 22.8933 414.814 23.32C415.881 23.7467 417.041 23.96 418.294 23.96ZM444.233 29V17.56L445.713 21.48L433.393 0.999998H440.273L449.713 16.72H445.753L455.233 0.999998H461.593L449.273 21.48L450.713 17.56V29H444.233Z" fill="#536878"/>
</svg>
